<?xml version="1.0" encoding="UTF-8" standalone="no"?>
<!DOCTYPE svg PUBLIC "-//W3C//DTD SVG 1.1//EN" "http://www.w3.org/Graphics/SVG/1.1/DTD/svg11.dtd">
<!-- Created with Vectornator (http://vectornator.io/) -->
<svg stroke-miterlimit="10" style="fill-rule:nonzero;clip-rule:evenodd;stroke-linecap:round;stroke-linejoin:round;" version="1.1" viewBox="0 0 926 428" xml:space="preserve" xmlns="http://www.w3.org/2000/svg" xmlns:vectornator="http://vectornator.io" xmlns:xlink="http://www.w3.org/1999/xlink">
<defs/>
<g id="Layer-1" vectornator:layerName="Layer 1">
<g opacity="1">
<path d="M97.5938 177C102.052 181.75 103.24 189.104 101.156 199.062C98.8229 209.938 94.4271 217.625 87.9688 222.125C81.5104 226.625 73.1771 228.875 62.9688 228.875L43.4062 228.875L36.4062 262L17.2812 262L36.8438 169.875L76.9688 169.875C86.2188 169.875 93.0937 172.25 97.5938 177ZM70.4688 185.875L52.5312 185.875L46.7812 213L64.7188 213C69.2604 213 73.0312 211.896 76.0312 209.688C79.0313 207.479 81.0312 203.979 82.0312 199.188C83.0729 194.396 82.5417 190.979 80.4375 188.938C78.3333 186.896 75.0104 185.875 70.4688 185.875Z" fill="currentColor" fill-rule="nonzero" opacity="1" stroke="currentColor" stroke-linecap="square" stroke-linejoin="miter" stroke-width="6"/>
<path d="M145.031 169.875L128.969 245.438L174.594 245.438L171.094 262L106.219 262L125.781 169.875L145.031 169.875Z" fill="currentColor" fill-rule="nonzero" opacity="1" stroke="currentColor" stroke-linecap="square" stroke-linejoin="miter" stroke-width="6"/>
<path d="M256.094 169.875L269.156 262L248.281 262L246.344 243.062L212.406 243.062L202.031 262L181.906 262L234.344 169.875L256.094 169.875ZM240.531 190.938L220.969 227.188L244.344 227.188L240.531 190.938Z" fill="currentColor" fill-rule="nonzero" opacity="1" stroke="currentColor" stroke-linecap="square" stroke-linejoin="miter" stroke-width="6"/>
<path d="M283.781 186.188L287.281 169.875L361.906 169.875L358.406 186.188L330.844 186.188L314.781 262L295.406 262L311.469 186.188L283.781 186.188Z" fill="currentColor" fill-rule="nonzero" opacity="1" stroke="currentColor" stroke-linecap="square" stroke-linejoin="miter" stroke-width="6"/>
<path d="M431.469 245.438L427.969 262L358.156 262L377.719 169.875L445.281 169.875L441.781 186.188L393.031 186.188L388.906 205.75L433.656 205.75L430.219 221.75L385.469 221.75L380.469 245.438L431.469 245.438Z" fill="currentColor" fill-rule="nonzero" opacity="1" stroke="currentColor" stroke-linecap="square" stroke-linejoin="miter" stroke-width="6"/>
<path d="M518.094 207.375L514.719 223.375L474.281 223.375L466.094 262L446.969 262L466.469 170L531.781 170L528.344 186.188L482.156 186.188L477.656 207.375L518.094 207.375Z" fill="currentColor" fill-rule="nonzero" opacity="1" stroke="currentColor" stroke-linecap="square" stroke-linejoin="miter" stroke-width="6"/>
<path d="M688.594 257.062C688.635 254.479 688.927 251.833 689.469 249.125L691.156 240.562C692.323 234.687 692.083 230.771 690.438 228.812C688.792 226.854 685.135 225.875 679.469 225.875L659.594 225.875L651.969 262L633.156 262L652.719 169.875L697.906 169.875C704.323 170 709.115 170.792 712.281 172.25C715.448 173.708 717.948 175.854 719.781 178.688C721.281 181.021 722.312 183.604 722.875 186.438C723.438 189.271 723.344 192.5 722.594 196.125C721.635 200.5 719.604 204.802 716.5 209.031C713.396 213.26 709.115 216.25 703.656 218C707.531 219.708 710.021 222.135 711.125 225.281C712.229 228.427 712.094 233.229 710.719 239.688L709.406 245.875C708.531 250.083 708.094 252.937 708.094 254.438C708.094 256.813 708.885 258.562 710.469 259.688L710.031 262L688.844 262C688.677 259.958 688.594 258.313 688.594 257.062ZM690.469 185.875L668.094 185.875L662.844 210.625L684.656 210.625C688.99 210.625 692.344 210.125 694.719 209.125C698.927 207.375 701.594 203.917 702.719 198.75C703.885 193.167 702.823 189.417 699.531 187.5C697.656 186.417 694.635 185.875 690.469 185.875Z" fill="currentColor" fill-rule="nonzero" opacity="1" stroke="currentColor" stroke-linecap="square" stroke-linejoin="miter" stroke-width="6"/>
<path d="M779.156 227.938L782.469 212.562L820.844 212.562L810.344 262L797.594 262L798.094 250.5C793.427 254.875 789.427 257.958 786.094 259.75C780.344 262.875 773.76 264.438 766.344 264.438C754.135 264.438 745.031 260.208 739.031 251.75C732.74 243.25 731.156 231.625 734.281 216.875C737.448 201.958 744.094 190 754.219 181C764.344 172 776.156 167.5 789.656 167.5C801.365 167.5 810.135 170.469 815.969 176.406C821.802 182.344 824.302 189.75 823.469 198.625L804.531 198.625C804.406 192.333 801.781 187.938 796.656 185.438C793.781 184.062 790.406 183.375 786.531 183.375C779.115 183.375 772.427 186.177 766.469 191.781C760.51 197.385 756.323 205.812 753.906 217.062C751.531 228.396 752.417 236.417 756.562 241.125C760.708 245.833 766.073 248.188 772.656 248.188C779.115 248.188 784.812 246.323 789.75 242.594C794.688 238.865 798.26 233.979 800.469 227.938L779.156 227.938Z" fill="currentColor" fill-rule="nonzero" opacity="1" stroke="currentColor" stroke-linecap="square" stroke-linejoin="miter" stroke-width="6"/>
<path d="M906.594 245.438L903.094 262L833.281 262L852.844 169.875L920.406 169.875L916.906 186.188L868.156 186.188L864.031 205.75L908.781 205.75L905.344 221.75L860.594 221.75L855.594 245.438L906.594 245.438Z" fill="currentColor" fill-rule="nonzero" opacity="1" stroke="currentColor" stroke-linecap="square" stroke-linejoin="miter" stroke-width="6"/>
</g>
<g opacity="1">
<path d="M581.13 161.059C551.938 161.059 528.189 184.808 528.189 214C528.189 243.192 551.938 266.941 581.13 266.941C610.321 266.941 634.07 243.192 634.07 214C634.07 184.808 610.321 161.059 581.13 161.059ZM581.13 251.601C560.363 251.601 543.529 234.767 543.529 214C543.529 193.233 560.363 176.399 581.13 176.399C601.896 176.399 618.73 193.233 618.73 214C618.73 234.767 601.895 251.601 581.13 251.601Z" fill="currentColor" fill-rule="nonzero" opacity="1" stroke="none"/>
<path d="M581.13 181.267C563.08 181.267 548.396 195.951 548.396 214C548.396 232.049 563.081 246.733 581.13 246.733C599.179 246.733 613.863 232.049 613.863 214C613.863 195.951 599.178 181.267 581.13 181.267ZM609.671 211.913L593.789 211.913C593.464 209.906 592.671 208.055 591.528 206.472L602.74 195.26C606.676 199.792 609.21 205.568 609.671 211.913ZM583.183 185.456C589.525 185.908 595.298 188.433 599.833 192.358L588.623 203.568C587.041 202.425 585.19 201.632 583.183 201.308L583.183 185.456ZM579.076 185.456L579.076 201.307C577.069 201.632 575.218 202.424 573.635 203.568L562.425 192.358C566.96 188.433 572.734 185.908 579.076 185.456ZM559.518 195.26L570.731 206.473C569.587 208.055 568.795 209.906 568.47 211.913L552.588 211.913C553.048 205.568 555.582 199.793 559.518 195.26ZM552.583 216.02L568.47 216.02C568.795 218.027 569.587 219.878 570.731 221.461L559.487 232.704C555.555 228.161 553.029 222.375 552.583 216.02ZM579.076 242.544C572.717 242.091 566.93 239.554 562.389 235.611L573.635 224.365C575.218 225.509 577.069 226.301 579.076 226.626L579.076 242.544ZM579.076 222.4L579.076 222.43C578.189 222.214 577.357 221.864 576.599 221.401L576.619 221.381C575.433 220.658 574.437 219.662 573.714 218.476L573.695 218.496C573.232 217.738 572.882 216.906 572.666 216.02L572.696 216.02C572.535 215.36 572.441 214.675 572.441 213.966C572.441 213.257 572.536 212.572 572.696 211.912L572.666 211.912C572.882 211.026 573.231 210.195 573.695 209.437L573.714 209.456C574.437 208.27 575.434 207.274 576.619 206.551L576.599 206.532C577.357 206.068 578.189 205.718 579.076 205.503L579.076 205.533C579.735 205.372 580.42 205.278 581.13 205.278C581.839 205.278 582.524 205.372 583.184 205.533L583.184 205.503C584.07 205.718 584.902 206.068 585.659 206.531L585.64 206.551C586.826 207.274 587.822 208.27 588.545 209.455L588.564 209.436C589.028 210.194 589.378 211.026 589.593 211.913L589.564 211.913C589.724 212.572 589.818 213.257 589.818 213.966C589.818 214.675 589.724 215.361 589.564 216.02L589.593 216.02C589.378 216.906 589.028 217.738 588.564 218.496L588.545 218.477C587.822 219.663 586.825 220.659 585.64 221.382L585.659 221.401C584.902 221.864 584.07 222.214 583.184 222.43L583.184 222.4C582.524 222.56 581.839 222.655 581.13 222.655C580.42 222.655 579.735 222.561 579.076 222.4ZM583.183 242.544L583.183 226.626C585.19 226.301 587.041 225.509 588.623 224.365L599.869 235.611C595.328 239.554 589.541 242.091 583.183 242.544ZM602.771 232.704L591.528 221.461C592.672 219.879 593.464 218.028 593.789 216.02L609.676 216.02C609.23 222.375 606.704 228.161 602.771 232.704Z" fill="currentColor" fill-rule="nonzero" opacity="1" stroke="none"/>
</g>
</g>
</svg>
